<svg width="144" height="144" viewBox="0 0 144 144" fill="none" xmlns="http://www.w3.org/2000/svg">
<circle cx="71.5239" cy="71.524" r="62.6308" transform="rotate(8.85353 71.5239 71.524)" fill="#FF930F"/>
<circle cx="71.5241" cy="71.524" r="44.3606" transform="rotate(8.85353 71.5241 71.524)" stroke="#F7F1F9" stroke-width="4.78406" stroke-dasharray="9.57 9.57"/>
<g clip-path="url(#clip0_236_12890)">
<path d="M93.2027 93.3443L91.2444 90.0252C93.3109 87.7555 95.1865 85.0929 96.8498 82.07C98.156 79.6943 97.4395 76.7109 95.1922 75.1961L87.4366 69.9703C87.3194 69.8924 87.2048 69.8191 87.0808 69.7508C89.0328 67.943 90.6423 65.5837 91.5707 62.4742C93.0121 57.6468 92.2702 52.7885 89.4806 48.7915C86.9404 45.1347 82.8281 42.3795 77.6022 40.8191C65.8681 37.3156 55.6093 41.7798 52.6559 51.6714C51.7275 54.7809 51.6997 57.9445 52.6081 61.3564C47.1697 63.4084 41.9527 67.0577 39.7445 74.4531C36.6005 84.9831 44.1112 95.5498 57.6004 99.5774C63.2096 101.252 68.8983 101.459 74.2873 100.212L76.3471 103.714C77.0203 104.856 78.0957 105.697 79.3601 106.074C79.4532 106.102 79.5499 106.131 79.6452 106.152C81.0288 106.483 82.4888 106.231 83.6866 105.46L91.5285 100.415C93.8951 98.8909 94.6362 95.7684 93.2109 93.3428L93.2027 93.3443Z" fill="black" fill-opacity="0.67"/>
<path d="M79.9473 98.769L75.7976 91.7097C70.3979 93.8279 64.3484 94.1115 58.1912 92.2731C47.6535 89.1267 41.5601 81.3386 43.8507 73.6671C45.6508 67.6381 50.1148 64.4202 58.6633 62.4961C56.2583 57.8249 55.7429 54.3116 56.7656 50.8865C58.8517 43.9 66.1684 40.8619 75.1982 43.5581C83.4758 46.0296 87.6809 51.9102 85.656 58.6923C84.1835 63.6237 80.2261 66.3991 72.6617 68.0195L78.9852 78.7864C80.6472 76.9702 82.2245 74.6794 83.611 72.0348L91.3667 77.2606C89.2512 81.1055 86.7108 84.3744 83.7374 86.846L87.7917 93.7284L79.9498 98.7736L79.9473 98.769ZM71.2388 84.0086L62.9084 69.7323C57.7743 70.9611 55.544 72.6819 54.6648 75.6264C53.6218 79.1197 56.1696 82.5679 61.4385 84.1411C64.7231 85.1218 68.0858 85.0828 71.2388 84.0086ZM66.5177 53.6459C65.9652 55.4966 66.3083 57.0912 68.3902 60.8456C73.8681 59.7195 75.9036 58.3898 76.559 56.1948C77.254 53.8672 76.105 51.7312 73.0247 50.8114C69.7401 49.8307 67.2713 51.1092 66.5152 53.6413L66.5177 53.6459Z" fill="#F7F1F9"/>
</g>
<defs>
<clipPath id="clip0_236_12890">
<rect width="58.3067" height="62.0284" fill="white" transform="translate(52.0652 33.1938) rotate(16.6246)"/>
</clipPath>
</defs>
</svg>
