<svg width="104" height="121" viewBox="0 0 104 121" fill="none" xmlns="http://www.w3.org/2000/svg">
<g clip-path="url(#clip0_236_12817)">
<path d="M43.1821 71.9443H60.8479V89.5082H43.1821V71.9443Z" fill="#FCD64B"/>
<path d="M54.9492 71.9443H60.8479V89.5082H54.9492V71.9443Z" fill="#FF930F"/>
<path d="M43.1821 71.9443H49.0808V89.5082H43.1821V71.9443Z" fill="#FFECA6"/>
<path d="M60.848 90.982H43.1822C42.3654 90.982 41.7 90.3203 41.7 89.5083V71.9444C41.7 71.1324 42.3654 70.4707 43.1822 70.4707H60.848C61.6647 70.4707 62.3302 71.1324 62.3302 71.9444V89.5083C62.3302 90.3203 61.6647 90.982 60.848 90.982ZM44.6644 88.0346H59.3657V73.4181H44.6644V88.0346Z" fill="black"/>
<path d="M81.4481 48.5458C81.4481 64.6962 68.2592 77.809 52.0152 77.809C35.7711 77.809 22.5823 64.6962 22.5823 48.5458V1.71875H81.4481V48.5458Z" fill="#FCD64B"/>
<path d="M75.5495 1.71875V48.5458C75.5495 63.7037 63.9336 76.1849 49.0508 77.6586C50.0188 77.7488 50.9868 77.809 51.985 77.809C68.229 77.809 81.4179 64.6962 81.4179 48.5458V1.71875H75.5495Z" fill="#FF930F"/>
<path d="M28.481 1.71875V48.5458C28.481 63.7037 40.0968 76.1849 54.9797 77.6586C54.0117 77.7488 53.0437 77.809 52.0454 77.809C35.8014 77.809 22.6125 64.6962 22.6125 48.5458V1.71875H28.481Z" fill="#FFECA6"/>
<path d="M52.0152 79.2526C34.9847 79.2526 21.1001 65.4782 21.1001 48.5158V1.7188C21.1001 0.906771 21.7656 0.245117 22.5823 0.245117H81.4481C82.2649 0.245117 82.9303 0.906771 82.9303 1.7188V48.5459C82.9303 65.4782 69.0458 79.2526 52.0152 79.2526ZM24.0646 3.19249V48.5459C24.0646 63.8842 36.6182 76.3354 52.0152 76.3354C67.4123 76.3354 79.9659 63.8541 79.9659 48.5459V3.19249H24.0646Z" fill="black"/>
<path d="M19.6479 112.907H84.3822V118.771H19.6479V112.907Z" fill="#F7F1F9"/>
<path d="M19.6479 112.907H28.4808V118.771H19.6479V112.907ZM75.5493 112.907H84.3822V118.771H75.5493V112.907Z" fill="#F7F1F9"/>
<path d="M84.3822 120.245H19.648C18.8313 120.245 18.1658 119.583 18.1658 118.771V112.907C18.1658 112.095 18.8313 111.433 19.648 111.433H84.3822C85.199 111.433 85.8645 112.095 85.8645 112.907V118.771C85.8645 119.583 85.199 120.245 84.3822 120.245ZM21.1 117.298H82.9V114.38H21.1V117.298Z" fill="black"/>
<path d="M78.5137 112.907V98.2903C78.5137 93.4482 74.551 89.5083 69.6808 89.5083H34.3493C29.4791 89.5083 25.5164 93.4482 25.5164 98.2903V112.907H78.5137Z" fill="#F7F1F9"/>
<path d="M69.6808 89.5083H63.7821C68.6523 89.5083 72.615 93.4482 72.615 98.2903V112.907H78.5137V98.2903C78.5137 93.4482 74.551 89.5083 69.6808 89.5083ZM34.3493 89.5083H40.2479C35.3777 89.5083 31.415 93.4482 31.415 98.2903V112.907H25.5164V98.2903C25.5164 93.4482 29.4791 89.5083 34.3493 89.5083Z" fill="#F7F1F9"/>
<path d="M78.5138 114.381H25.5164C24.6997 114.381 24.0342 113.719 24.0342 112.907V98.2903C24.0342 92.6362 28.6624 88.0347 34.3493 88.0347H69.6506C75.3376 88.0347 79.9658 92.6362 79.9658 98.2903V112.907C79.9658 113.719 79.3003 114.381 78.5138 114.381ZM26.9986 111.463H77.0315V98.2903C77.0315 94.2602 73.7343 90.982 69.6809 90.982H34.3493C30.2959 90.982 26.9986 94.2602 26.9986 98.2903V111.463Z" fill="black"/>
<path d="M34.3494 95.3428H69.6507V107.042H34.3494V95.3428Z" fill="#59C3F0"/>
<path d="M63.7822 95.3428H69.6809V107.042H63.7822V95.3428Z" fill="#21A0D6"/>
<path d="M34.3494 95.3428H40.248V107.042H34.3494V95.3428Z" fill="#96DCFA"/>
<path d="M69.681 108.516H34.3494C33.5327 108.516 32.8672 107.854 32.8672 107.042V95.3428C32.8672 94.5308 33.5327 93.8691 34.3494 93.8691H69.6507C70.4675 93.8691 71.133 94.5308 71.133 95.3428V107.042C71.133 107.884 70.4977 108.516 69.681 108.516ZM35.8317 105.598H68.1988V96.8165H35.8317V105.598Z" fill="black"/>
<path d="M54.9494 85.4783H43.1823C42.789 85.4783 42.4563 85.1474 42.4563 84.7565C42.4563 84.3655 42.789 84.0347 43.1823 84.0347H54.9494C55.3426 84.0347 55.6754 84.3655 55.6754 84.7565C55.6754 85.1474 55.3729 85.4783 54.9494 85.4783ZM60.8481 85.4783H57.9139C57.5206 85.4783 57.1879 85.1474 57.1879 84.7565C57.1879 84.3655 57.5206 84.0347 57.9139 84.0347H60.8481C61.2413 84.0347 61.5741 84.3655 61.5741 84.7565C61.5741 85.1474 61.2413 85.4783 60.8481 85.4783Z" fill="black"/>
<path d="M69.6809 11.2227H22.5822C22.1889 11.2227 21.8562 10.8918 21.8562 10.5009C21.8562 10.1099 22.1889 9.77905 22.5822 9.77905H69.6809C70.0741 9.77905 70.4069 10.1099 70.4069 10.5009C70.4069 10.8918 70.0741 11.2227 69.6809 11.2227ZM81.448 11.2227H75.5493C75.1561 11.2227 74.8233 10.8918 74.8233 10.5009C74.8233 10.1099 75.1561 9.77905 75.5493 9.77905H81.448C81.8412 9.77905 82.174 10.1099 82.174 10.5009C82.174 10.8918 81.8412 11.2227 81.448 11.2227Z" fill="black"/>
<path d="M39.159 30.982H64.841C70.2557 30.982 74.7326 34.982 75.4283 40.155C75.4888 39.6738 75.5191 39.1926 75.5191 38.6813C75.5191 32.8166 70.7397 28.0347 64.8107 28.0347H39.1288C33.2301 28.0347 28.4204 32.7865 28.4204 38.6813C28.4204 39.1926 28.4507 39.6738 28.5112 40.155C29.2976 34.982 33.7746 30.982 39.159 30.982Z" fill="#FCD64B"/>
<path d="M40.2193 40.406C40.2087 47.3398 45.8532 52.9699 52.8273 52.9819C59.8014 52.9925 65.4641 47.3804 65.4762 40.4466V40.4075C65.4868 33.4737 59.8422 27.8436 52.8681 27.8316C45.8941 27.821 40.2314 33.4331 40.2193 40.3669V40.406Z" fill="black"/>
<path d="M22.5822 48.5458H16.6835C8.5766 48.5458 1.98218 41.9894 1.98218 33.9293V13.4481C1.98218 12.6661 2.28467 11.9142 2.82917 11.3729C3.37366 10.8315 4.1299 10.5308 4.91639 10.5308H22.5822V16.3954H7.88086V33.9593C7.88086 38.8014 11.8436 42.7413 16.7137 42.7413H22.6124V48.5458H22.5822Z" fill="#FCD64B"/>
<path d="M5.21899 33.8992C5.21899 38.7413 9.1817 42.6812 14.0519 42.6812H16.6836C11.8134 42.6812 7.85071 38.7413 7.85071 33.8992V14.8616H5.21899V33.8992ZM19.9506 42.6812H22.5823V48.5458H19.9506V42.6812ZM19.9506 10.5007H22.5823V16.3654H19.9506V10.5007Z" fill="#FF930F"/>
<path d="M22.5822 49.9895H16.6836C7.75991 49.9895 0.5 42.7715 0.5 33.8993V13.4181C0.5 12.2451 0.953745 11.1324 1.80073 10.3203C2.64772 9.47823 3.73671 9.0271 4.91645 9.0271H22.5822C23.399 9.0271 24.0645 9.68875 24.0645 10.5008V16.3654C24.0645 17.1775 23.399 17.8391 22.5822 17.8391H9.33289V33.9294C9.33289 37.9594 12.6301 41.2376 16.6836 41.2376H22.5822C23.399 41.2376 24.0645 41.8993 24.0645 42.7113V48.576C24.0645 49.3579 23.399 49.9895 22.5822 49.9895ZM4.91645 11.9745C4.5232 11.9745 4.16021 12.1248 3.88796 12.3955C3.61571 12.6662 3.46446 13.0271 3.46446 13.4181V33.8993C3.46446 41.1474 9.39339 47.0722 16.7138 47.0722H21.1302V44.1549H16.7138C11.0269 44.1549 6.39868 39.5534 6.39868 33.8993V16.3354C6.39868 15.9444 6.54993 15.5835 6.82217 15.3128C7.09442 15.0421 7.45742 14.8918 7.85066 14.8918H21.1V11.9745H4.91645Z" fill="black"/>
<path d="M81.448 48.5458H87.3467C95.4536 48.5458 102.048 41.9894 102.048 33.9293V13.4481C102.048 12.6661 101.745 11.9142 101.201 11.3729C100.656 10.8315 99.9002 10.5308 99.1138 10.5308H81.448V16.3954H96.1493V33.9593C96.1493 38.8014 92.1866 42.7413 87.3164 42.7413H81.4177V48.5458H81.448Z" fill="#FCD64B"/>
<path d="M98.8113 33.8992C98.8113 38.7413 94.8486 42.6812 89.9784 42.6812H87.3467C92.2169 42.6812 96.1796 38.7413 96.1796 33.8992V14.8917H98.8113V33.8992ZM81.448 42.6812H84.0797V48.5458H81.448V42.6812ZM81.448 10.5007H84.0797V16.3654H81.448V10.5007Z" fill="#FF930F"/>
<path d="M87.3165 49.9895H81.4178C80.601 49.9895 79.9355 49.3279 79.9355 48.5158V42.6512C79.9355 41.8391 80.601 41.1775 81.4178 41.1775H87.3165C91.3699 41.1775 94.6671 37.8993 94.6671 33.8692V17.779H81.4178C80.601 17.779 79.9355 17.1173 79.9355 16.3053V10.5008C79.9355 9.68875 80.601 9.0271 81.4178 9.0271H99.0836C100.263 9.0271 101.383 9.47823 102.199 10.3203C103.046 11.1624 103.5 12.2451 103.5 13.4181V33.8993C103.53 42.7715 96.2703 49.9895 87.3165 49.9895ZM82.9303 47.0722H87.3467C94.6369 47.0722 100.596 41.1775 100.596 33.8993V13.4181C100.596 13.0271 100.445 12.6662 100.173 12.3955C99.9003 12.1248 99.5071 11.9745 99.1441 11.9745H82.9605V14.8918H96.2098C96.6031 14.8918 96.9661 15.0421 97.2383 15.3128C97.5106 15.5835 97.6618 15.9444 97.6618 16.3354V33.8993C97.6618 39.5534 93.0336 44.1549 87.3467 44.1549H82.9303V47.0722Z" fill="black"/>
<path d="M46.1165 14.8918C45.2998 14.8918 44.6343 14.2302 44.6343 13.4181V7.58355C44.6343 6.77152 45.2998 6.10986 46.1165 6.10986C46.9333 6.10986 47.5987 6.77152 47.5987 7.58355V13.4482C47.5987 14.2302 46.9333 14.8918 46.1165 14.8918Z" fill="#F7F1F9"/>
<path d="M49.0809 11.9745H43.1822C42.3654 11.9745 41.7 11.3128 41.7 10.5008C41.7 9.68875 42.3654 9.0271 43.1822 9.0271H49.0809C49.8976 9.0271 50.5631 9.68875 50.5631 10.5008C50.5631 11.3128 49.8976 11.9745 49.0809 11.9745Z" fill="#F7F1F9"/>
<path d="M37.3138 23.6736C36.497 23.6736 35.8315 23.0119 35.8315 22.1999V16.3353C35.8315 15.5232 36.497 14.8616 37.3138 14.8616C38.1305 14.8616 38.796 15.5232 38.796 16.3353V22.1999C38.7658 23.0119 38.1003 23.6736 37.3138 23.6736Z" fill="#F7F1F9"/>
<path d="M40.2481 20.7564H34.3494C33.5327 20.7564 32.8672 20.0948 32.8672 19.2828C32.8672 18.4707 33.5327 17.8091 34.3494 17.8091H40.2481C41.0648 17.8091 41.7303 18.4707 41.7303 19.2828C41.7001 20.0948 41.0648 20.7564 40.2481 20.7564Z" fill="#F7F1F9"/>
<path d="M59.4263 45.7097V43.2721L64.4023 41.1037C64.6428 40.9954 64.8954 40.9067 65.1601 40.8345C65.4248 40.7623 65.635 40.7157 65.7908 40.6916C65.635 40.6676 65.4233 40.6225 65.1601 40.5578C64.8954 40.4916 64.6428 40.4059 64.4023 40.2976L59.4263 38.1292V35.6736L67.7207 39.4029V41.9668L59.4263 45.7142V45.7097Z" fill="#FF930F"/>
<path d="M46.2586 35.6722V38.1098L41.2825 40.2783C41.042 40.3865 40.7894 40.4752 40.5247 40.5474C40.2601 40.6196 40.0498 40.6662 39.894 40.6903C40.0498 40.7143 40.2616 40.7595 40.5247 40.8241C40.7894 40.8903 41.042 40.976 41.2825 41.0843L46.2586 43.2527V45.7083L37.9641 41.979V39.4151L46.2586 35.6677V35.6722Z" fill="#FF930F"/>
<path d="M50.8459 42.809L50.746 38.7669H52.7289C53.2704 38.7669 53.6999 38.6315 54.0175 38.3623C54.3352 38.0932 54.494 37.7353 54.494 37.2872C54.494 36.839 54.3321 36.4661 54.0085 36.2029C53.6848 35.9398 53.2522 35.809 52.7092 35.809H49.4377V33.0496H52.5111C53.529 33.0496 54.4078 33.224 55.1474 33.5714C55.887 33.9202 56.4587 34.409 56.8625 35.0405C57.2663 35.6721 57.4675 36.421 57.4675 37.2887C57.4675 38.1563 57.2951 38.839 56.9518 39.4571C56.6084 40.0751 56.1259 40.5578 55.5043 40.9052C54.8827 41.2541 54.1552 41.427 53.3233 41.427V42.8075H50.8444L50.8459 42.809ZM51.7972 47.5398C51.348 47.5398 50.988 47.412 50.7173 47.1548C50.4466 46.8992 50.3104 46.5669 50.3104 46.1593C50.3104 45.7518 50.4451 45.4045 50.7173 45.1533C50.988 44.9037 51.348 44.7789 51.7972 44.7789H52.3916C52.8408 44.7789 53.2008 44.9037 53.473 45.1533C53.7438 45.4029 53.8799 45.7383 53.8799 46.1593C53.8799 46.5804 53.7438 46.9157 53.473 47.1653C53.2023 47.415 52.8348 47.5398 52.372 47.5398H51.7972Z" fill="#FFECA6"/>
</g>
<defs>
<clipPath id="clip0_236_12817">
<rect width="103" height="120" fill="white" transform="translate(0.5 0.245117)"/>
</clipPath>
</defs>
</svg>
