<svg width="198" height="207" viewBox="0 0 198 207" fill="none" xmlns="http://www.w3.org/2000/svg">
<path d="M86.942 5.14706C93.9505 -0.608284 104.049 -0.608284 111.058 5.14706L121.076 13.374C124.774 16.4108 129.482 17.9404 134.259 17.6573L147.199 16.8901C156.252 16.3534 164.423 22.2895 166.71 31.0651L169.979 43.6095C171.186 48.2399 174.095 52.2445 178.126 54.8231L189.046 61.8088C196.686 66.6958 199.806 76.3005 196.498 84.7445L191.77 96.8147C190.025 101.27 190.025 106.22 191.77 110.675L196.498 122.746C199.806 131.19 196.686 140.794 189.046 145.681L178.126 152.667C174.095 155.246 171.186 159.25 169.979 163.881L166.71 176.425C164.423 185.201 156.252 191.137 147.199 190.6L134.259 189.833C129.482 189.55 124.774 191.079 121.076 194.116L111.058 202.343C104.049 208.099 93.9505 208.099 86.942 202.343L76.9237 194.116C73.2257 191.079 68.518 189.55 63.7413 189.833L50.8006 190.6C41.7477 191.137 33.5775 185.201 31.2904 176.425L28.0211 163.881C26.8143 159.25 23.9048 155.246 19.874 152.667L8.9538 145.681C1.31439 140.794 -1.80635 131.19 1.50155 122.746L6.23005 110.675C7.97544 106.22 7.97544 101.27 6.23005 96.8147L1.50155 84.7445C-1.80635 76.3005 1.31439 66.6958 8.9538 61.8088L19.874 54.8231C23.9048 52.2445 26.8143 48.2399 28.0211 43.6095L31.2904 31.0651C33.5775 22.2895 41.7477 16.3534 50.8006 16.8901L63.7413 17.6573C68.518 17.9404 73.2257 16.4108 76.9237 13.374L86.942 5.14706Z" fill="#4A28F2"/>
</svg>
