<svg width="1440" height="936" viewBox="0 0 1440 936" fill="none" xmlns="http://www.w3.org/2000/svg">
    <g clip-path="url(#clip0_262_14224)">
        <path d="M0 939.519V303.993C52.1771 265.175 104.354 226.357 175.233 242.754C246.112 259.15 335.693 330.761 418.265 336.654C500.837 342.547 576.4 282.723 651.91 282.219C727.419 281.715 802.875 340.531 867.822 352.984C932.769 365.437 987.206 331.527 1053.49 306.715C1119.77 281.902 1197.89 266.187 1274.61 267.249C1351.34 268.312 1426.67 286.152 1502 303.993V939.519H0Z" fill="#4A28F2" />
        <path d="M0 939.125V620.681C52.4179 607.522 104.836 594.363 182.535 605.711C260.234 617.06 363.213 652.916 435.997 679.198C508.781 705.481 551.369 722.191 612.274 687.364C673.178 652.536 752.4 566.171 837.574 575.772C922.748 585.374 1013.87 690.943 1096.25 710.498C1178.63 730.054 1252.26 663.595 1318.42 634.29C1384.59 604.985 1443.29 612.833 1502 620.681V939.125H0Z" fill="url(#paint0_linear_262_14224)" />
    </g>
    <defs>
        <linearGradient id="paint0_linear_262_14224" x1="751" y1="575.032" x2="751" y2="939.125" gradientUnits="userSpaceOnUse">
            <stop stop-opacity="0" />
            <stop offset="1" />
        </linearGradient>
        <clipPath id="clip0_262_14224">
            <rect width="1502" height="939" fill="white" transform="translate(0 0.745117)" />
        </clipPath>
    </defs>
</svg>